<svg width="100%" height="100%" id="svg" viewBox="0 0 1440 690" xmlns="http://www.w3.org/2000/svg" class="transition duration-300 ease-in-out delay-150"><defs><linearGradient id="gradient" x1="1%" y1="38%" x2="99%" y2="62%"><stop offset="5%" stop-color="#f78da7"></stop><stop offset="95%" stop-color="#eb144c"></stop></linearGradient></defs><path d="M 0,700 L 0,175 C 93.39285714285714,123.42857142857143 186.78571428571428,71.85714285714286 309,90 C 431.2142857142857,108.14285714285714 582.2500000000001,196 707,234 C 831.7499999999999,272 930.2142857142858,260.1428571428571 1048,242 C 1165.7857142857142,223.85714285714286 1302.892857142857,199.42857142857144 1440,175 L 1440,700 L 0,700 Z" stroke="none" stroke-width="0" fill="url(#gradient)" fill-opacity="0.53" class="transition-all duration-300 ease-in-out delay-150 path-0"></path><defs><linearGradient id="gradient" x1="1%" y1="38%" x2="99%" y2="62%"><stop offset="5%" stop-color="#f78da7"></stop><stop offset="95%" stop-color="#eb144c"></stop></linearGradient></defs><path d="M 0,700 L 0,408 C 139.0714285714286,409.7142857142857 278.1428571428572,411.42857142857144 404,410 C 529.8571428571428,408.57142857142856 642.4999999999998,403.99999999999994 742,384 C 841.5000000000002,364.00000000000006 927.8571428571429,328.5714285714286 1042,330 C 1156.142857142857,331.4285714285714 1298.0714285714284,369.71428571428567 1440,408 L 1440,700 L 0,700 Z" stroke="none" stroke-width="0" fill="url(#gradient)" fill-opacity="1" class="transition-all duration-300 ease-in-out delay-150 path-1"></path></svg>