<svg xmlns="http://www.w3.org/2000/svg" version="1.1" xmlns:xlink="http://www.w3.org/1999/xlink" width="512" height="512" x="0" y="0" viewBox="0 0 50 50" style="enable-background:new 0 0 512 512" xml:space="preserve" class=""><g><path d="M25 3C12.9 3 3 12.9 3 25s9.9 22 22 22 22-9.9 22-22S37.1 3 25 3zm-1.9 31.4-1.3 4.9c-.3 1.2-1.8 1.8-2.8 1l-6.4-4.7c-1-.8-1-2.3.1-3l4.3-2.8c.6-.4 1.4-.4 2.1.1l3.5 2.5c.4.5.6 1.2.5 2zM21 9.3h8c1.3 0 2.2 1.3 1.7 2.5l-1.8 4.8c-.3.7-.9 1.2-1.7 1.2h-4.3c-.8 0-1.4-.5-1.7-1.2l-1.8-4.8c-.5-1.2.4-2.5 1.6-2.5zm-7 6.3 4 3.2c.6.5.8 1.3.6 2l-1.3 4.1c-.2.7-.9 1.2-1.6 1.3l-5.1.3c-1.3.1-2.2-1.2-1.8-2.4l2.5-7.6c.3-1.2 1.8-1.7 2.7-.9zm7.5 9.6c0-2 1.6-3.5 3.5-3.5 2 0 3.5 1.6 3.5 3.5 0 2-1.6 3.5-3.5 3.5-2 0-3.5-1.6-3.5-3.5zm6.1 7.2 3.5-2.5c.6-.4 1.4-.5 2.1-.1l4.3 2.8c1.1.7 1.1 2.2.1 3l-6.4 4.7c-1 .8-2.5.2-2.8-1l-1.3-4.9c-.4-.8-.1-1.5.5-2zm6.8-6.2c-.8 0-1.4-.5-1.6-1.3l-1.3-4.1c-.2-.7 0-1.5.6-2l4-3.2c1-.8 2.5-.4 2.9.8l2.5 7.6c.4 1.2-.6 2.4-1.8 2.4z" fill="#faff00" opacity="1" data-original="#000000" class=""></path></g></svg>